
<svg version="1.0" xmlns="http://www.w3.org/2000/svg"
 width="30.000000pt" height="30.000000pt" viewBox="0 0 78.000000 89.000000" fill="#338001"
 preserveAspectRatio="xMidYMid meet">


<g transform="translate(0.000000,89.000000) scale(0.100000,-0.100000)"
 stroke="none">
<path d="M221 733 c18 -32 33 -59 34 -61 1 -1 75 -24 165 -50 136 -40 167 -52
183 -75 17 -22 19 -30 9 -52 -21 -46 -49 -50 -148 -21 -49 14 -93 26 -97 26
-7 0 22 -57 65 -125 10 -16 48 -79 83 -140 35 -60 69 -117 74 -125 12 -17 8
20 -14 155 -8 44 -11 82 -7 85 4 3 25 12 47 19 22 7 50 23 62 34 44 40 58 130
29 186 -18 34 -71 81 -92 81 -13 0 -109 28 -407 116 -15 5 -12 -5 14 -53z"/>
<path d="M167 763 c-2 -4 -17 -48 -32 -98 -15 -49 -40 -133 -56 -185 -16 -52
-29 -112 -29 -135 0 -126 144 -195 270 -129 58 30 58 31 165 -60 33 -27 68
-57 78 -65 18 -15 -11 40 -87 168 -53 88 -73 123 -102 174 -15 26 -30 47 -33
47 -4 0 -18 -37 -31 -82 -29 -96 -61 -129 -107 -112 -37 13 -58 57 -45 92 6
15 27 83 47 152 l37 125 -35 58 c-19 32 -37 55 -40 50z"/>
</g>
</svg>
